<?xml version="1.0" encoding="utf-8"?>
<!-- Generator: Adobe Illustrator 14.0.0, SVG Export Plug-In . SVG Version: 6.00 Build 43363)  -->
<!DOCTYPE svg PUBLIC "-//W3C//DTD SVG 1.1//EN" "http://www.w3.org/Graphics/SVG/1.1/DTD/svg11.dtd">
<svg version="1.1" id="Layer_1" xmlns="http://www.w3.org/2000/svg" xmlns:xlink="http://www.w3.org/1999/xlink" x="0px" y="0px"
	 width="24px" height="24px" viewBox="0 0 256 256" xml:space="preserve">
<path d="M241.871,0H14.129C6.324,0,0,6.325,0,14.129v227.742C0,249.673,6.324,256,14.129,256h104.385v-84.748H85.152
	v-38.636h33.361v-28.493c0-33.066,20.192-51.071,49.691-51.071c14.129,0,26.272,1.053,29.812,1.522v34.556l-20.459,0.009
	c-16.041,0-19.146,7.623-19.146,18.809v24.667h38.259l-4.982,38.636h-33.276V256h83.46c7.801,0,14.129-6.327,14.129-14.129V14.129
	C256,6.325,249.672,0,241.871,0z"/>
</svg>
