<?xml version="1.0" encoding="utf-8"?>

<svg version="1.1" id="Layer_1" xmlns="http://www.w3.org/2000/svg" xmlns:xlink="http://www.w3.org/1999/xlink" x="0px" y="0px"
	viewBox="0 0 256 256" enable-background="new 0 0 256 256" xml:space="preserve">
<path d="M127.992,3.161C57.314,3.161,0,60.468,0,131.169
	c0,56.547,36.672,104.522,87.541,121.45c6.399,1.174,8.736-2.777,8.736-6.17c0-3.038-0.111-11.088-0.173-21.77
	c-35.605,7.735-43.118-17.158-43.118-17.158c-5.82-14.787-14.212-18.724-14.212-18.724c-11.621-7.942,0.879-7.781,0.879-7.781
	c12.846,0.905,19.606,13.191,19.606,13.191c11.418,19.56,29.957,13.912,37.251,10.635c1.163-8.271,4.47-13.912,8.127-17.111
	C76.214,184.5,46.333,173.52,46.333,124.47c0-13.974,4.988-25.4,13.176-34.347c-1.316-3.238-5.709-16.253,1.255-33.875
	c0,0,10.747-3.441,35.198,13.122c10.21-2.839,21.16-4.259,32.046-4.309c10.869,0.05,21.819,1.469,32.048,4.309
	c24.434-16.563,35.161-13.122,35.161-13.122c6.983,17.623,2.594,30.637,1.273,33.875c8.203,8.947,13.153,20.374,13.153,34.347
	c0,49.173-29.928,59.992-58.442,63.161c4.604,3.952,8.693,11.764,8.693,23.704c0,17.112-0.161,30.917-0.161,35.114
	c0,3.423,2.311,7.405,8.81,6.154C219.358,235.646,256,187.7,256,131.169C256,60.468,198.686,3.161,127.992,3.161z"/>
</svg>
