<?xml version="1.0" encoding="utf-8"?>

<svg version="1.1" id="Layer_1" xmlns="http://www.w3.org/2000/svg" xmlns:xlink="http://www.w3.org/1999/xlink" x="0px" y="0px"
	 viewBox="0 0 256 256" enable-background="new 0 0 256 256" xml:space="preserve">

	<path d="M81.309,116.362c-0.038,9.239,0,18.481,0.04,27.717c15.49,0.504,31.015,0.272,46.505,0.504
		c-6.832,34.36-53.571,45.499-78.298,23.061c-25.428-19.681-24.226-62.85,2.211-81.132c18.479-14.753,44.76-11.103,63.238,1.668
		c7.259-6.716,14.051-13.898,20.611-21.351c-15.372-12.265-34.237-21.001-54.308-20.068C39.424,45.361,0.913,82.046,0.216,123.934
		c-2.679,34.237,19.836,67.818,51.629,79.928c31.677,12.189,72.283,3.884,92.51-24.571c13.352-17.975,16.225-41.111,14.67-62.85
		C133.096,116.246,107.202,116.284,81.309,116.362z"/>
	<path d="M232.782,116.246c-0.075-7.725-0.115-15.49-0.155-23.215c-7.728,0-15.41,0-23.097,0
		c-0.076,7.725-0.156,15.45-0.196,23.215c-7.763,0.038-15.485,0.078-23.213,0.156c0,7.725,0,15.412,0,23.099
		c7.728,0.076,15.49,0.151,23.213,0.231c0.08,7.728,0.08,15.45,0.161,23.173c7.722,0,15.409,0,23.132,0
		c0.04-7.723,0.08-15.445,0.155-23.213c7.763-0.08,15.49-0.115,23.218-0.191c0-7.687,0-15.414,0-23.099
		C248.272,116.324,240.505,116.324,232.782,116.246z"/>
</svg>
