<?xml version="1.0" encoding="UTF-8"?>

<svg version="1.1" xmlns="http://www.w3.org/2000/svg" xmlns:xlink="http://www.w3.org/1999/xlink" xml:space="preserve" style="display: none;">

    <symbol id="cinnamon" viewBox="0 0 23 23">
        <path d="M12.7,21.9c0.2,0,0.399-0.101,0.7-0.101
    		c0.1,0,0.199,0,0.3-0.1c0.2,0,0.5-0.101,0.7-0.2c0.1,0,0.199,0,0.3-0.1C15,21.3,15.3,21.2,15.6,21.1c0.101,0,0.101-0.1,0.2-0.1
    		c0.2-0.1,0.5-0.2,0.7-0.3c0.1,0,0.2-0.101,0.3-0.2c0.2-0.1,0.4-0.2,0.5-0.3C17.4,20.1,17.5,20.1,17.6,20c0.2-0.1,0.4-0.3,0.601-0.4
    		c0.1,0,0.1-0.1,0.2-0.1c0.199-0.2,0.5-0.4,0.699-0.6C19.2,18.8,19.2,18.8,19.3,18.7c0.2-0.2,0.3-0.3,0.4-0.5
    		c0.1-0.101,0.1-0.2,0.2-0.3C20,17.7,20.1,17.6,20.3,17.4C20.4,17.3,20.4,17.2,20.5,17.1c0.1-0.199,0.3-0.5,0.4-0.699
    		c0,0,0-0.101,0.1-0.101c0.1-0.3,0.3-0.5,0.4-0.8c0-0.1,0.1-0.2,0.1-0.3c0-0.101,0.1-0.2,0.1-0.4l-5.399-6L10.4,15.4L13.2,9.8
    		l-1.4-2.5l-8.7,10c0,0.101,0.1,0.101,0.1,0.2c0.2,0.2,0.3,0.5,0.5,0.7c0.1,0.1,0.2,0.2,0.3,0.3c0.2,0.2,0.4,0.4,0.6,0.6
    		C4.7,19.2,4.8,19.3,4.9,19.4C5.1,19.6,5.3,19.8,5.6,19.9C5.7,20,5.7,20,5.8,20.1c0.3,0.2,0.6,0.4,1,0.601c0.1,0,0.1,0.1,0.2,0.1
    		c0.3,0.101,0.6,0.3,0.9,0.4c0.1,0,0.2,0.1,0.4,0.1c0.2,0.101,0.5,0.2,0.8,0.2c0.1,0,0.3,0.1,0.4,0.1C9.8,21.7,10,21.7,10.3,21.8
    		c0.1,0,0.2,0,0.4,0.101c0.4,0,0.8,0.1,1.2,0.1c0.3,0,0.7,0,1,0C12.5,22,12.6,22,12.7,21.9z"/>

    	<path d="M11.5,0C5.149,0,0,5.149,0,11.5C0,17.852,5.149,23,11.5,23C17.852,23,23,17.852,23,11.5
    		C23,5.149,17.852,0,11.5,0z M11.5,21.04c-5.269,0-9.54-4.272-9.54-9.54c0-5.269,4.271-9.54,9.54-9.54s9.54,4.271,9.54,9.54
    		C21.04,16.768,16.769,21.04,11.5,21.04z"/>
    </symbol>

    <symbol id="cs-box" viewBox="0 0 16 16" aria-hidden="true">
        <path d="M1 4.27v7.47c0 .45.3.84.75.97l6.5 1.73c.16.05.34.05.5 0l6.5-1.73c.45-.13.75-.52.75-.97V4.27c0-.45-.3-.84-.75-.97l-6.5-1.74a1.4 1.4 0 0 0-.5 0L1.75 3.3c-.45.13-.75.52-.75.97zm7 9.09l-6-1.59V5l6 1.61v6.75zM2 4l2.5-.67L11 5.06l-2.5.67L2 4zm13 7.77l-6 1.59V6.61l2-.55V8.5l2-.53V5.53L15 5v6.77zm-2-7.24L6.5 2.8l2-.53L15 4l-2 .53z"></path>
    </symbol>

    <symbol id="cs-globe" viewBox="0 0 14 16" aria-hidden="true">
        <path d="M7 1C3.14 1 0 4.14 0 8s3.14 7 7 7c.48 0 .94-.05 1.38-.14-.17-.08-.2-.73-.02-1.09.19-.41.81-1.45.2-1.8-.61-.35-.44-.5-.81-.91-.37-.41-.22-.47-.25-.58-.08-.34.36-.89.39-.94.02-.06.02-.27 0-.33 0-.08-.27-.22-.34-.23-.06 0-.11.11-.2.13-.09.02-.5-.25-.59-.33-.09-.08-.14-.23-.27-.34-.13-.13-.14-.03-.33-.11s-.8-.31-1.28-.48c-.48-.19-.52-.47-.52-.66-.02-.2-.3-.47-.42-.67-.14-.2-.16-.47-.2-.41-.04.06.25.78.2.81-.05.02-.16-.2-.3-.38-.14-.19.14-.09-.3-.95s.14-1.3.17-1.75c.03-.45.38.17.19-.13-.19-.3 0-.89-.14-1.11-.13-.22-.88.25-.88.25.02-.22.69-.58 1.16-.92.47-.34.78-.06 1.16.05.39.13.41.09.28-.05-.13-.13.06-.17.36-.13.28.05.38.41.83.36.47-.03.05.09.11.22s-.06.11-.38.3c-.3.2.02.22.55.61s.38-.25.31-.55c-.07-.3.39-.06.39-.06.33.22.27.02.5.08.23.06.91.64.91.64-.83.44-.31.48-.17.59.14.11-.28.3-.28.3-.17-.17-.19.02-.3.08-.11.06-.02.22-.02.22-.56.09-.44.69-.42.83 0 .14-.38.36-.47.58-.09.2.25.64.06.66-.19.03-.34-.66-1.31-.41-.3.08-.94.41-.59 1.08.36.69.92-.19 1.11-.09.19.1-.06.53-.02.55.04.02.53.02.56.61.03.59.77.53.92.55.17 0 .7-.44.77-.45.06-.03.38-.28 1.03.09.66.36.98.31 1.2.47.22.16.08.47.28.58.2.11 1.06-.03 1.28.31.22.34-.88 2.09-1.22 2.28-.34.19-.48.64-.84.92s-.81.64-1.27.91c-.41.23-.47.66-.66.8 3.14-.7 5.48-3.5 5.48-6.84 0-3.86-3.14-7-7-7L7 1zm1.64 6.56c-.09.03-.28.22-.78-.08-.48-.3-.81-.23-.86-.28 0 0-.05-.11.17-.14.44-.05.98.41 1.11.41.13 0 .19-.13.41-.05.22.08.05.13-.05.14zM6.34 1.7c-.05-.03.03-.08.09-.14.03-.03.02-.11.05-.14.11-.11.61-.25.52.03-.11.27-.58.3-.66.25zm1.23.89c-.19-.02-.58-.05-.52-.14.3-.28-.09-.38-.34-.38-.25-.02-.34-.16-.22-.19.12-.03.61.02.7.08.08.06.52.25.55.38.02.13 0 .25-.17.25zm1.47-.05c-.14.09-.83-.41-.95-.52-.56-.48-.89-.31-1-.41-.11-.1-.08-.19.11-.34.19-.15.69.06 1 .09.3.03.66.27.66.55.02.25.33.5.19.63h-.01z"></path>
    </symbol>

    <symbol id="cs-paintcan" viewBox="0 0 12 16" aria-hidden="true">
        <path d="M6 0C2.69 0 0 2.69 0 6v1c0 .55.45 1 1 1v5c0 1.1 2.24 2 5 2s5-.9 5-2V8c.55 0 1-.45 1-1V6c0-3.31-2.69-6-6-6zm3 10v.5c0 .28-.22.5-.5.5s-.5-.22-.5-.5V10c0-.28-.22-.5-.5-.5s-.5.22-.5.5v2.5c0 .28-.22.5-.5.5s-.5-.22-.5-.5v-2c0-.28-.22-.5-.5-.5s-.5.22-.5.5v.5c0 .55-.45 1-1 1s-1-.45-1-1v-1c-.55 0-1-.45-1-1V7.2c.91.49 2.36.8 4 .8 1.64 0 3.09-.31 4-.8V9c0 .55-.45 1-1 1zM6 7c-1.68 0-3.12-.41-3.71-1C2.88 5.41 4.32 5 6 5c1.68 0 3.12.41 3.71 1-.59.59-2.03 1-3.71 1zm0-3c-2.76 0-5 .89-5 2 0-2.76 2.24-5 5-5s5 2.24 5 5c0-1.1-2.24-2-5-2z"></path>
    </symbol>

    <symbol id="cs-monitor" viewBox="0 0 16 16" aria-hidden="true">
        <path d="M15 2H1c-.55 0-1 .45-1 1v9c0 .55.45 1 1 1h5.34c-.25.61-.86 1.39-2.34 2h8c-1.48-.61-2.09-1.39-2.34-2H15c.55 0 1-.45 1-1V3c0-.55-.45-1-1-1zm0 9H1V3h14v8z"></path>
    </symbol>

    <symbol id="cs-browser" viewBox="0 0 14 16" aria-hidden="true">
        <path d="M5 3h1v1H5V3zM3 3h1v1H3V3zM1 3h1v1H1V3zm12 10H1V5h12v8zm0-9H7V3h6v1zm1-1c0-.55-.45-1-1-1H1c-.55 0-1 .45-1 1v10c0 .55.45 1 1 1h12c.55 0 1-.45 1-1V3z"></path>
    </symbol>

    <symbol id="cs-cloud" viewBox="0 0 16 16" aria-hidden="true">
        <path d="M9 12h2l-3 3-3-3h2V7h2v5zm3-8c0-.44-.91-3-4.5-3C5.08 1 3 2.92 3 5 1.02 5 0 6.52 0 8c0 1.53 1 3 3 3h3V9.7H3C1.38 9.7 1.3 8.28 1.3 8c0-.17.05-1.7 1.7-1.7h1.3V5c0-1.39 1.56-2.7 3.2-2.7 2.55 0 3.13 1.55 3.2 1.8v1.2H12c.81 0 2.7.22 2.7 2.2 0 2.09-2.25 2.2-2.7 2.2h-2V11h2c2.08 0 4-1.16 4-3.5C16 5.06 14.08 4 12 4z"></path>
    </symbol>

    <symbol id="cs-star" viewBox="0 0 14 16" aria-hidden="true">
        <path fill-rule="evenodd" d="M14 6l-4.9-.64L7 1 4.9 5.36 0 6l3.6 3.26L2.67 14 7 11.67 11.33 14l-.93-4.74z"></path>
    </symbol>

    <symbol id="cs-update" viewBox="0 0 14 16" aria-hidden="true">
        <path fill-rule="evenodd" d="M13 3H7c-.55 0-1 .45-1 1v8c0 .55.45 1 1 1h6c.55 0 1-.45 1-1V4c0-.55-.45-1-1-1zm-1 8H8V5h4v6zM4 4h1v1H4v6h1v1H4c-.55 0-1-.45-1-1V5c0-.55.45-1 1-1zM1 5h1v1H1v4h1v1H1c-.55 0-1-.45-1-1V6c0-.55.45-1 1-1z"></path>
    </symbol>

    <symbol id="cs-facebook" viewBox="0 0 256 256" aria-hidden="true">
        <path d="M241.871,0H14.129C6.324,0,0,6.325,0,14.129v227.742C0,249.673,6.324,256,14.129,256h104.385v-84.748H85.152
	    v-38.636h33.361v-28.493c0-33.066,20.192-51.071,49.691-51.071c14.129,0,26.272,1.053,29.812,1.522v34.556l-20.459,0.009
	    c-16.041,0-19.146,7.623-19.146,18.809v24.667h38.259l-4.982,38.636h-33.276V256h83.46c7.801,0,14.129-6.327,14.129-14.129V14.129
	    C256,6.325,249.672,0,241.871,0z"/>
    </symbol>
    <symbol id="cs-google" viewBox="0 0 256 256" aria-hidden="true">
        <path d="M81.309,116.362c-0.038,9.239,0,18.481,0.04,27.717c15.49,0.504,31.015,0.272,46.505,0.504
		c-6.832,34.36-53.571,45.499-78.298,23.061c-25.428-19.681-24.226-62.85,2.211-81.132c18.479-14.753,44.76-11.103,63.238,1.668
		c7.259-6.716,14.051-13.898,20.611-21.351c-15.372-12.265-34.237-21.001-54.308-20.068C39.424,45.361,0.913,82.046,0.216,123.934
		c-2.679,34.237,19.836,67.818,51.629,79.928c31.677,12.189,72.283,3.884,92.51-24.571c13.352-17.975,16.225-41.111,14.67-62.85
		C133.096,116.246,107.202,116.284,81.309,116.362z"/>
	    <path d="M232.782,116.246c-0.075-7.725-0.115-15.49-0.155-23.215c-7.728,0-15.41,0-23.097,0
	    c-0.076,7.725-0.156,15.45-0.196,23.215c-7.763,0.038-15.485,0.078-23.213,0.156c0,7.725,0,15.412,0,23.099
		c7.728,0.076,15.49,0.151,23.213,0.231c0.08,7.728,0.08,15.45,0.161,23.173c7.722,0,15.409,0,23.132,0
		c0.04-7.723,0.08-15.445,0.155-23.213c7.763-0.08,15.49-0.115,23.218-0.191c0-7.687,0-15.414,0-23.099
		C248.272,116.324,240.505,116.324,232.782,116.246z"/>
    </symbol>
    <symbol id="cs-github" viewBox="0 0 256 256" aria-hidden="true">
        <path fill-rule="evenodd" clip-rule="evenodd" d="M127.992,3.161C57.314,3.161,0,60.468,0,131.169
	    c0,56.547,36.672,104.522,87.541,121.45c6.399,1.174,8.736-2.777,8.736-6.17c0-3.038-0.111-11.088-0.173-21.77
	    c-35.605,7.735-43.118-17.158-43.118-17.158c-5.82-14.787-14.212-18.724-14.212-18.724c-11.621-7.942,0.879-7.781,0.879-7.781
	    c12.846,0.905,19.606,13.191,19.606,13.191c11.418,19.56,29.957,13.912,37.251,10.635c1.163-8.271,4.47-13.912,8.127-17.111
	    C76.214,184.5,46.333,173.52,46.333,124.47c0-13.974,4.988-25.4,13.176-34.347c-1.316-3.238-5.709-16.253,1.255-33.875
	    c0,0,10.747-3.441,35.198,13.122c10.21-2.839,21.16-4.259,32.046-4.309c10.869,0.05,21.819,1.469,32.048,4.309
	    c24.434-16.563,35.161-13.122,35.161-13.122c6.983,17.623,2.594,30.637,1.273,33.875c8.203,8.947,13.153,20.374,13.153,34.347
	    c0,49.173-29.928,59.992-58.442,63.161c4.604,3.952,8.693,11.764,8.693,23.704c0,17.112-0.161,30.917-0.161,35.114
	    c0,3.423,2.311,7.405,8.81,6.154C219.358,235.646,256,187.7,256,131.169C256,60.468,198.686,3.161,127.992,3.161z"/>
    </symbol>
</svg>
