<?xml version="1.0" encoding="UTF-8" standalone="no"?>
<!-- Generator: Adobe Illustrator 19.0.0, SVG Export Plug-In . SVG Version: 6.00 Build 0)  -->

<svg
   xmlns:dc="http://purl.org/dc/elements/1.1/"
   xmlns:cc="http://creativecommons.org/ns#"
   xmlns:rdf="http://www.w3.org/1999/02/22-rdf-syntax-ns#"
   xmlns:svg="http://www.w3.org/2000/svg"
   xmlns="http://www.w3.org/2000/svg"
   xmlns:sodipodi="http://sodipodi.sourceforge.net/DTD/sodipodi-0.dtd"
   xmlns:inkscape="http://www.inkscape.org/namespaces/inkscape"
   version="1.1"
   id="Layer_1"
   x="0px"
   y="0px"
   viewBox="0 0 22.999998 22.999999"
   xml:space="preserve"
   inkscape:version="0.91 r"
   sodipodi:docname="cinnamon-logo.svg"
   width="22.999998"
   height="22.999998"><metadata
     id="metadata3444"><rdf:RDF><cc:Work
         rdf:about=""><dc:format>image/svg+xml</dc:format><dc:type
           rdf:resource="http://purl.org/dc/dcmitype/StillImage" /><dc:title></dc:title></cc:Work></rdf:RDF></metadata><defs
     id="defs3442" /><sodipodi:namedview
     pagecolor="#ffffff"
     bordercolor="#666666"
     borderopacity="1"
     objecttolerance="10"
     gridtolerance="10"
     guidetolerance="10"
     inkscape:pageopacity="0"
     inkscape:pageshadow="2"
     inkscape:window-width="1920"
     inkscape:window-height="1151"
     id="namedview3440"
     showgrid="false"
     fit-margin-top="0"
     fit-margin-left="0"
     fit-margin-right="0"
     fit-margin-bottom="0"
     inkscape:zoom="10.684685"
     inkscape:cx="-5.7135283"
     inkscape:cy="11.899999"
     inkscape:window-x="0"
     inkscape:window-y="0"
     inkscape:window-maximized="1"
     inkscape:current-layer="Layer_1" /><style
     type="text/css"
     id="style3411">
	.st0{fill-rule:evenodd;clip-rule:evenodd;fill:#DC682E;}
	.st1{fill-rule:evenodd;clip-rule:evenodd;fill:none;stroke:#DC682E;stroke-width:2;stroke-miterlimit:10;}
	.text{fill:#FFFFFF;}
</style><path
     id="XMLID_9_"
     class="st0"
     d="m 12.699998,21.9 c 0.2,0 0.4,-0.1 0.7,-0.1 0.1,0 0.2,0 0.3,-0.1 0.2,0 0.5,-0.1 0.7,-0.2 0.1,0 0.2,0 0.3,-0.1 0.3,-0.1 0.6,-0.2 0.9,-0.3 0.1,0 0.1,-0.1 0.2,-0.1 0.2,-0.1 0.5,-0.2 0.7,-0.3 0.1,0 0.2,-0.1 0.3,-0.2 0.2,-0.1 0.4,-0.2 0.5,-0.3 0.1,-0.1 0.2,-0.1 0.3,-0.2 0.2,-0.1 0.4,-0.3 0.6,-0.4 0.1,0 0.1,-0.1 0.2,-0.1 0.2,-0.2 0.5,-0.4 0.7,-0.6 0.1,-0.1 0.1,-0.1 0.2,-0.2 0.2,-0.2 0.3,-0.3 0.4,-0.5 0.1,-0.1 0.1,-0.2 0.2,-0.3 0.1,-0.2 0.2,-0.3 0.4,-0.5 0.1,-0.1 0.1,-0.2 0.2,-0.3 0.1,-0.2 0.3,-0.5 0.4,-0.7 0,0 0,-0.1 0.1,-0.1 0.1,-0.3 0.3,-0.5 0.4,-0.8 0,-0.1 0.1,-0.2 0.1,-0.3 0,-0.1 0.1,-0.2 0.1,-0.4 l -5.4,-6 -5.8,6.6 2.8,-5.6 -1.4,-2.5 -8.7,10 c 0,0.1 0.1,0.1 0.1,0.2 0.2,0.2 0.3,0.5 0.5,0.7 0.1,0.1 0.2,0.2 0.3,0.3 0.2,0.2 0.4,0.4 0.6,0.6 0.1,0.1 0.2,0.2 0.3,0.3 0.2,0.2 0.4,0.4 0.7,0.5 0.1,0.1 0.1,0.1 0.2,0.2 0.3,0.2 0.6,0.4 1,0.6 0.1,0 0.1,0.1 0.2,0.1 0.3,0.1 0.6,0.3 0.9,0.4 0.1,0 0.2,0.1 0.4,0.1 0.2,0.1 0.5,0.2 0.8,0.2 0.1,0 0.3,0.1 0.4,0.1 0.3,0.1 0.5,0.1 0.8,0.2 0.1,0 0.2,0 0.4,0.1 0.4,0 0.8,0.1 1.2,0.1 0.3,0 0.7,0 1,0 -0.4,0 -0.3,0 -0.2,-0.1 z"
     inkscape:connector-curvature="0"
     style="clip-rule:evenodd;fill:#dc682e;fill-rule:evenodd" /><g
     id="XMLID_5_"
     transform="translate(-121.2,-1.3)"><path
       id="XMLID_3_"
       class="st1"
       d="m 143.2,12.8 c 0,5.8 -4.7,10.5 -10.5,10.5 -5.8,0 -10.5,-4.7 -10.5,-10.5 0,-5.8 4.7,-10.5 10.5,-10.5 5.8,0 10.5,4.7 10.5,10.5 z"
       inkscape:connector-curvature="0"
       style="clip-rule:evenodd;fill:none;fill-rule:evenodd;stroke:#dc682e;stroke-width:2;stroke-miterlimit:10" /></g></svg>